<svg width="32" height="22" viewBox="0 0 32 22" fill="none" xmlns="http://www.w3.org/2000/svg">
<path d="M29.3522 0H2.64776C1.18645 0 0 1.17526 0 2.61877V19.3846C0 20.828 1.1898 22 2.64776 22H29.3522C30.8135 22 32 20.8247 32 19.3846V2.61877C32.0032 1.17532 30.8135 0 29.3522 0ZM24.0855 14.2943L20.3548 11.0019L30.7749 1.79839C30.9172 2.0412 31.0013 2.31898 31.0013 2.61906V19.3849C31.0013 19.6852 30.9206 19.963 30.7749 20.2055L24.0855 14.2943ZM29.3522 0.98713C29.5947 0.98713 29.8242 1.03814 30.0313 1.13081L17.4226 12.2664C16.6112 12.9817 15.3891 12.9817 14.5775 12.2664L12.738 10.6409C12.7315 10.6344 12.7252 10.6282 12.7186 10.6249L1.96895 1.13393C2.17597 1.04126 2.40532 0.990252 2.64799 0.990252H29.3525L29.3522 0.98713ZM1.22178 20.2057C1.07948 19.9662 0.995362 19.6851 0.995362 19.385V2.61917C0.995362 2.31889 1.07609 2.03802 1.22178 1.7985L11.6418 11.002L7.9143 14.2944L1.22178 20.2057ZM2.64747 21.017C2.40504 21.017 2.17547 20.966 1.96843 20.8733L8.57989 15.0321L12.3915 11.6662L13.9079 13.0074C14.5028 13.5343 15.2495 13.7962 15.9964 13.7962C16.7434 13.7962 17.49 13.5343 18.0849 13.0074L19.6044 11.6662L23.4161 15.0352L30.031 20.8696C29.824 20.9623 29.5946 21.0133 29.3519 21.0133H2.64747V21.017Z" fill="#1BB498"/>
</svg>
