<svg width="31" height="31" viewBox="0 0 31 31" fill="none" xmlns="http://www.w3.org/2000/svg">
<path d="M17.1469 28.4167C16.6518 28.4167 16.2912 28.2552 16.0651 27.9323C15.8391 27.6094 15.8122 27.2112 15.9844 26.7375L20.7313 14.1438C20.8604 13.7993 21.0972 13.5087 21.4417 13.2719C21.7861 13.0351 22.1413 12.9167 22.5073 12.9167C22.8733 12.9167 23.2339 13.0351 23.5891 13.2719C23.9443 13.5087 24.1865 13.7993 24.3156 14.1438L29.1594 26.6084C29.3531 27.1035 29.3316 27.5287 29.0948 27.8839C28.858 28.2391 28.4597 28.4167 27.9 28.4167C27.6632 28.4167 27.4372 28.3414 27.2219 28.1907C27.0066 28.04 26.8559 27.8462 26.7698 27.6094L25.7042 24.348H19.5042L18.2771 27.6417C18.191 27.857 18.0403 28.04 17.825 28.1907C17.6097 28.3414 17.3837 28.4167 17.1469 28.4167ZM20.2146 22.0875H24.8L22.5396 15.823H22.475L20.2146 22.0875ZM9.33231 11.0438C9.65523 11.6035 10.0104 12.1471 10.3979 12.6745C10.7854 13.202 11.2052 13.7455 11.6573 14.3052C12.6261 13.2934 13.4334 12.244 14.0792 11.1568C14.725 10.0697 15.274 8.93407 15.7261 7.75004H2.58335C2.21738 7.75004 1.91061 7.62626 1.66304 7.37869C1.41547 7.13112 1.29169 6.82435 1.29169 6.45837C1.29169 6.0924 1.41547 5.78563 1.66304 5.53806C1.91061 5.29049 2.21738 5.16671 2.58335 5.16671H10.3334V3.87504C10.3334 3.50907 10.4571 3.2023 10.7047 2.95473C10.9523 2.70716 11.259 2.58337 11.625 2.58337C11.991 2.58337 12.2978 2.70716 12.5453 2.95473C12.7929 3.2023 12.9167 3.50907 12.9167 3.87504V5.16671H20.6667C21.0327 5.16671 21.3394 5.29049 21.587 5.53806C21.8346 5.78563 21.9584 6.0924 21.9584 6.45837C21.9584 6.82435 21.8346 7.13112 21.587 7.37869C21.3394 7.62626 21.0327 7.75004 20.6667 7.75004H18.3094C17.8358 9.23546 17.2061 10.694 16.4203 12.1256C15.6346 13.5572 14.6712 14.9188 13.5302 16.2105L16.6948 19.4073L15.7261 22.023L11.625 18.0834L6.03856 23.6698C5.80176 23.9066 5.51113 24.025 5.16669 24.025C4.82224 24.025 4.53162 23.8959 4.29481 23.6375C4.03648 23.4007 3.90731 23.1101 3.90731 22.7657C3.90731 22.4212 4.03648 22.1198 4.29481 21.8615L9.97814 16.1782C9.41842 15.5108 8.89099 14.8381 8.39585 14.1599C7.90071 13.4818 7.44863 12.7875 7.0396 12.0771C6.78127 11.6035 6.75974 11.1945 6.97502 10.85C7.1903 10.5056 7.5778 10.3334 8.13752 10.3334C8.37433 10.3334 8.60575 10.4033 8.83179 10.5433C9.05783 10.6832 9.22467 10.85 9.33231 11.0438Z" fill="#5EEAAF"/>
</svg>
