<svg width="287" height="47" viewBox="0 0 287 47" fill="none" xmlns="http://www.w3.org/2000/svg">
<path d="M17.536 46.064L3.96801 5.87199L6.08001 7.47199L0.256012 5.87199V1.26399L19.2 0.943993V5.55199L12.928 7.34399L14.016 5.10399L23.808 38.064H22.528L33.216 5.61599L33.92 7.40799L28.096 5.87199V1.26399L45.184 0.943993V5.55199L39.424 7.27999L41.536 5.67999L27.264 46.064H17.536Z" fill="black"/>
<path d="M65.239 5.55199L59.607 7.47199L60.567 6.064V41.072L59.607 39.728L65.239 41.392V46H46.679V41.392L52.247 39.792L51.415 41.072V6.064L52.567 7.47199L46.679 5.87199V1.26399L65.239 0.943993V5.55199Z" fill="black"/>
<path d="M98.4745 1.26399L115.435 0.943993V5.55199L109.419 7.536L110.763 5.61599V46H100.203L80.8745 10.608H82.1545V41.52L80.8105 39.6L86.8905 41.392V46H69.8665V41.392L75.9465 39.6L74.6025 41.52V5.67999L75.4985 7.34399L69.8665 5.87199V1.26399L85.4825 0.943993L104.491 35.632H103.147V5.61599L104.555 7.47199L98.4745 5.87199V1.26399Z" fill="black"/>
<path d="M137.864 5.55199L132.232 7.47199L133.192 6.064V41.072L132.232 39.728L137.864 41.392V46H119.304V41.392L124.872 39.792L124.04 41.072V6.064L125.192 7.47199L119.304 5.87199V1.26399L137.864 0.943993V5.55199Z" fill="black"/>
<path d="M162.012 46.768C158.513 46.768 155.313 45.9147 152.412 44.208C149.51 42.4587 147.185 39.8773 145.436 36.464C143.686 33.008 142.812 28.7627 142.812 23.728C142.812 18.7787 143.665 14.5547 145.372 11.056C147.078 7.55733 149.489 4.86933 152.604 2.99199C155.718 1.11466 159.366 0.175995 163.548 0.175995C165.766 0.175995 168.049 0.453328 170.396 1.008C172.742 1.56266 175.26 2.39466 177.948 3.50399L177.372 15.024H171.932L170.396 7.536L171.932 9.008C170.438 8.41066 169.009 7.96266 167.644 7.66399C166.278 7.36533 165.02 7.216 163.868 7.216C161.436 7.216 159.388 7.83466 157.724 9.07199C156.06 10.2667 154.801 12.016 153.948 14.32C153.094 16.624 152.668 19.376 152.668 22.576C152.668 26.3307 153.158 29.4667 154.14 31.984C155.164 34.4587 156.55 36.3147 158.3 37.552C160.092 38.7467 162.097 39.344 164.316 39.344C165.98 39.344 167.729 39.0027 169.564 38.32C171.441 37.5947 173.318 36.5067 175.196 35.056L178.588 40.368C175.942 42.5013 173.19 44.1013 170.332 45.168C167.516 46.2347 164.742 46.768 162.012 46.768Z" fill="black"/>
<path d="M201.489 5.55199L195.857 7.47199L196.817 6.064V41.072L195.857 39.728L201.489 41.392V46H182.929V41.392L188.497 39.792L187.665 41.072V6.064L188.817 7.47199L182.929 5.87199V1.26399L201.489 0.943993V5.55199Z" fill="black"/>
<path d="M231.401 1.26399L249.961 0.943993V5.55199L244.265 7.47199L245.289 5.168V28.4C245.289 30.576 245.076 32.6027 244.649 34.48C244.265 36.3147 243.625 38 242.729 39.536C241.833 41.0293 240.681 42.3307 239.273 43.44C237.865 44.5067 236.137 45.3387 234.089 45.936C232.084 46.4907 229.758 46.768 227.113 46.768C223.572 46.768 220.692 46.3413 218.473 45.488C216.254 44.592 214.526 43.4613 213.289 42.096C212.052 40.688 211.156 39.1947 210.601 37.616C210.089 35.9947 209.769 34.4587 209.641 33.008C209.556 31.5147 209.513 30.256 209.513 29.232V5.23199L210.537 7.40799L204.777 5.87199V1.26399L223.337 0.943993V5.55199L217.769 7.47199L218.665 5.23199V29.232C218.665 30.3413 218.708 31.4293 218.793 32.496C218.921 33.52 219.134 34.48 219.433 35.376C219.732 36.2293 220.18 36.9973 220.777 37.68C221.417 38.32 222.249 38.832 223.273 39.216C224.34 39.5573 225.662 39.728 227.241 39.728C228.862 39.728 230.206 39.536 231.273 39.152C232.34 38.768 233.193 38.2347 233.833 37.552C234.516 36.8267 235.006 35.9947 235.305 35.056C235.646 34.1173 235.86 33.0933 235.945 31.984C236.073 30.832 236.137 29.6373 236.137 28.4V5.168L236.969 7.27999L231.401 5.87199V1.26399Z" fill="black"/>
<path d="M263.605 12.272C263.605 13.5093 264.032 14.5333 264.885 15.344C265.738 16.1547 266.848 16.8587 268.213 17.456C269.578 18.0107 271.093 18.5653 272.757 19.12C274.421 19.632 276.064 20.2293 277.685 20.912C279.306 21.552 280.8 22.384 282.165 23.408C283.573 24.3893 284.682 25.648 285.493 27.184C286.346 28.72 286.773 30.64 286.773 32.944C286.773 36.1013 285.941 38.704 284.277 40.752C282.656 42.8 280.48 44.336 277.749 45.36C275.018 46.3413 271.989 46.832 268.661 46.832C266.4 46.832 264.074 46.5973 261.685 46.128C259.338 45.7013 257.013 45.04 254.709 44.144L255.029 31.984H260.341L261.685 39.728L260.853 38.192C262.133 38.7893 263.477 39.2587 264.885 39.6C266.336 39.8987 267.744 40.048 269.109 40.048C270.688 40.048 272.138 39.8347 273.461 39.408C274.784 38.9813 275.829 38.32 276.597 37.424C277.365 36.528 277.749 35.4187 277.749 34.096C277.749 32.7733 277.344 31.6853 276.533 30.832C275.722 29.9787 274.613 29.2747 273.205 28.72C271.84 28.1227 270.346 27.5893 268.725 27.12C267.104 26.608 265.461 26.032 263.797 25.392C262.176 24.752 260.661 23.9413 259.253 22.96C257.888 21.9787 256.8 20.7413 255.989 19.248C255.178 17.712 254.773 15.792 254.773 13.488C254.773 10.4587 255.498 7.98399 256.949 6.064C258.4 4.10133 260.362 2.62933 262.837 1.64799C265.312 0.666662 268.106 0.175995 271.221 0.175995C273.44 0.175995 275.744 0.410661 278.133 0.879993C280.522 1.34933 282.912 2.05333 285.301 2.99199L284.597 14.192H279.157L277.813 7.216L278.837 8.23999C277.77 7.81333 276.618 7.49333 275.381 7.27999C274.186 7.024 272.97 6.896 271.733 6.896C270.282 6.896 268.938 7.08799 267.701 7.47199C266.464 7.81333 265.461 8.38933 264.693 9.19999C263.968 9.96799 263.605 10.992 263.605 12.272Z" fill="black"/>
</svg>
